<svg width="64" height="64" viewBox="0 0 64 64" fill="none" xmlns="http://www.w3.org/2000/svg">
<path d="M54.2141 12.0623C50.0092 10.1372 45.5702 8.77147 41.0104 8C40.3864 9.11543 39.8218 10.2631 39.319 11.4381C34.462 10.7062 29.5227 10.7062 24.6656 11.4381C24.1625 10.2632 23.598 9.11557 22.9742 8C18.4115 8.77799 13.9696 10.1469 9.76052 12.0724C1.40439 24.4354 -0.86083 36.4914 0.271777 48.3762C5.16533 51.9918 10.6426 54.7415 16.4655 56.5058C17.7767 54.7424 18.9369 52.8715 19.9338 50.9132C18.0403 50.206 16.2127 49.3335 14.4721 48.3057C14.9302 47.9735 15.3782 47.6312 15.8111 47.299C20.8756 49.6807 26.4033 50.9156 31.9999 50.9156C37.5965 50.9156 43.1241 49.6807 48.1886 47.299C48.6265 47.6564 49.0746 47.9987 49.5276 48.3057C47.7837 49.3351 45.9528 50.2094 44.0558 50.9183C45.0516 52.8757 46.2118 54.7449 47.5241 56.5058C53.352 54.7486 58.8335 52.0002 63.728 48.3812C65.0569 34.5987 61.4577 22.6534 54.2141 12.0623ZM21.3685 41.0671C18.2123 41.0671 15.6047 38.2029 15.6047 34.6792C15.6047 31.1555 18.1217 28.2661 21.3584 28.2661C24.5951 28.2661 27.1825 31.1555 27.1271 34.6792C27.0718 38.2029 24.5851 41.0671 21.3685 41.0671ZM42.6313 41.0671C39.47 41.0671 36.8726 38.2029 36.8726 34.6792C36.8726 31.1555 39.3895 28.2661 42.6313 28.2661C45.873 28.2661 48.4403 31.1555 48.3849 34.6792C48.3295 38.2029 45.8479 41.0671 42.6313 41.0671Z" fill="#5865F2"/>
</svg>
