<?xml version="1.0" encoding="UTF-8"?>
<svg width="352px" height="92px" viewBox="0 0 352 92" version="1.1" xmlns="http://www.w3.org/2000/svg" xmlns:xlink="http://www.w3.org/1999/xlink">
    <title>Logos</title>
    <g id="Logos" stroke="none" stroke-width="1" fill="none" fill-rule="evenodd">
        <g id="logo-apple" transform="translate(83.000000, 14.000000)" fill="#707780" fill-rule="nonzero">
            <path d="M43.3130722,33.7868041 C43.2363711,25.740866 49.8863505,21.875134 50.1854845,21.6910515 C46.4424742,16.222268 40.6285361,15.4705979 38.5576082,15.3862268 C33.6103918,14.88 28.9009485,18.300866 26.3851546,18.300866 C23.8693608,18.300866 19.9959588,15.4552577 15.8924536,15.5396289 C10.492701,15.6163299 5.51480412,18.676701 2.7305567,23.508866 C-2.86861856,33.2192165 1.30391753,47.6390103 6.77270103,55.5315464 C9.44956701,59.3896082 12.6249897,63.7385567 16.812866,63.5774845 C20.8473402,63.4164124 22.3660206,60.9696495 27.228866,60.9696495 C32.0917113,60.9696495 33.4646598,63.5774845 37.721567,63.5007835 C42.0551753,63.4164124 44.8010722,59.5583505 47.4549278,55.6849485 C50.5076289,51.1979381 51.7731959,46.8643299 51.8498969,46.6342268 C51.7501856,46.5958763 43.4051134,43.3974433 43.3130722,33.7868041" id="Path"></path>
            <path d="M35.3131546,10.1552165 C37.5374845,7.46301031 39.0331546,3.7276701 38.6266392,0 C35.4282062,0.130391753 31.5548041,2.13228866 29.2614433,4.82449485 C27.2058557,7.2022268 25.4033814,11.0065979 25.894268,14.657567 C29.4455258,14.9336907 33.0964948,12.8397526 35.3131546,10.1552165 M71.3626392,41.6946804 L67.6809897,52.8546804 L62.9485361,52.8546804 L74.998268,17.3881237 L80.5207423,17.3881237 L92.6164948,52.8546804 L87.7229691,52.8546804 L83.9339381,41.6946804 L71.3626392,41.6946804 Z M82.9905155,38.1127423 L79.5236289,27.9038351 C78.7336082,25.5874639 78.2120412,23.4858557 77.6828041,21.430268 L77.5830928,21.430268 C77.0538557,23.5318763 76.4785979,25.6871753 75.7959588,27.8501443 L72.3290722,38.1050722 L82.9905155,38.1127423 Z M96.2061031,35.6966598 C96.2061031,32.436866 96.1063918,29.7983505 95.9913402,27.382268 L100.148536,27.382268 L100.363299,31.7542268 L100.46301,31.7542268 C102.357526,28.6478351 105.356536,26.8070103 109.513732,26.8070103 C115.672825,26.8070103 120.297897,32.0150103 120.297897,39.7541443 C120.297897,48.9122474 114.721732,53.4299381 108.723711,53.4299381 C105.356536,53.4299381 102.411216,51.9572784 100.884866,49.4338144 L100.785155,49.4338144 L100.785155,63.2706804 L96.2061031,63.2706804 L96.2061031,35.6966598 L96.2061031,35.6966598 Z M100.777485,42.484701 C100.777485,43.1750103 100.877196,43.7962887 100.992247,44.3792165 C101.835959,47.5853196 104.620206,49.8019794 107.941361,49.8019794 C112.834887,49.8019794 115.680495,45.8058557 115.680495,39.9612371 C115.680495,34.8529485 112.995959,30.4963299 108.102433,30.4963299 C104.950021,30.4963299 102.004701,32.7590103 101.099629,36.233567 C100.938557,36.8088247 100.785155,37.499134 100.785155,38.1280825 L100.777485,42.484701 L100.777485,42.484701 Z M125.084041,35.6966598 C125.084041,32.436866 124.98433,29.7983505 124.869278,27.382268 L129.026474,27.382268 L129.241237,31.7542268 L129.340948,31.7542268 C131.235464,28.6478351 134.234474,26.8070103 138.39167,26.8070103 C144.550763,26.8070103 149.175835,32.0150103 149.175835,39.7541443 C149.175835,48.9122474 143.59967,53.4299381 137.601649,53.4299381 C134.234474,53.4299381 131.289155,51.9572784 129.762804,49.4338144 L129.663093,49.4338144 L129.663093,63.2706804 L125.084041,63.2706804 L125.084041,35.6966598 L125.084041,35.6966598 Z M129.663093,42.484701 C129.663093,43.1750103 129.762804,43.7962887 129.877856,44.3792165 C130.721567,47.5853196 133.505814,49.8019794 136.826969,49.8019794 C141.720495,49.8019794 144.566103,45.8058557 144.566103,39.9612371 C144.566103,34.8529485 141.881567,30.4963299 136.988041,30.4963299 C133.835629,30.4963299 130.890309,32.7590103 129.985237,36.233567 C129.824165,36.8088247 129.670763,37.499134 129.670763,38.1280825 L129.663093,42.484701 L129.663093,42.484701 Z M153.969649,15.4936082 L158.602392,15.4936082 L158.602392,52.8470103 L153.969649,52.8470103 L153.969649,15.4936082 Z M167.913897,40.9583505 C168.013608,47.2171546 172.017402,49.8019794 176.642474,49.8019794 C179.955959,49.8019794 181.957856,49.2267216 183.691299,48.4903918 L184.48132,51.8038763 C182.855258,52.5402062 180.06334,53.3839175 176.013526,53.3839175 C168.17468,53.3839175 163.488247,48.2296082 163.488247,40.5441649 C163.488247,32.8587216 168.013608,26.8070103 175.430598,26.8070103 C183.74499,26.8070103 185.953979,34.1166186 185.953979,38.8030515 C185.953979,39.7541443 185.854268,40.4828041 185.792907,40.9583505 L167.913897,40.9583505 Z M181.489979,37.644866 C181.54367,34.6995464 180.278103,30.1204948 175.070103,30.1204948 C170.38367,30.1204948 168.335753,34.4387629 167.967588,37.644866 L181.489979,37.644866 L181.489979,37.644866 Z" id="Shape"></path>
        </g>
    </g>
</svg>