<?xml version="1.0" encoding="UTF-8"?>
<svg width="352px" height="92px" viewBox="0 0 352 92" version="1.1" xmlns="http://www.w3.org/2000/svg" xmlns:xlink="http://www.w3.org/1999/xlink">
    <title>Logos</title>
    <g id="Logos" stroke="none" stroke-width="1" fill="none" fill-rule="evenodd">
        <g id="logo-facebook" transform="translate(71.000000, 20.960000)" fill="#707780" fill-rule="nonzero">
            <g id="Group" transform="translate(0.534694, 0.578449)">
                <path d="M112.036296,20.7461983 C110.24011,20.7461983 108.945325,21.3282244 107.632418,21.9211947 L107.632418,35.3386389 C108.88995,35.457034 109.61084,35.457034 110.803935,35.457034 C115.115184,35.457034 115.706194,33.5060027 115.706194,30.7819212 L115.706194,24.3736639 C115.706194,22.3619427 115.03061,20.7461983 112.036296,20.7461983 L112.036296,20.7461983 Z M83.4040439,20.0139397 C80.4127498,20.0139397 79.7301186,21.6366486 79.7301186,23.6463799 L79.7301186,24.7756102 L87.0739418,24.7756102 L87.0739418,23.6463799 C87.0739418,21.6366486 86.3913106,20.0139397 83.4040439,20.0139397 Z M27.93774,33.9795829 C27.93774,35.5694595 28.6968903,36.3952402 30.3722566,36.3952402 C32.1694494,36.3952402 33.2336695,35.8161988 34.5455699,35.2212387 L34.5455699,32.0385008 L30.6159096,32.0385008 C28.7552865,32.0385008 27.93774,32.3807521 27.93774,33.9795829 Z M139.888254,20.7461983 C136.891925,20.7461983 135.853883,22.3619427 135.853883,24.3736639 L135.853883,31.7151529 C135.853883,33.7318487 136.891925,35.3525677 139.888254,35.3525677 C142.876527,35.3525677 143.922624,33.7318487 143.922624,31.7151529 L143.922624,24.3736639 C143.921617,22.3619427 142.87552,20.7461983 139.888254,20.7461983 L139.888254,20.7461983 Z M13.2541209,42.2115222 L4.44636579,42.2115222 L4.44636579,21.1451598 L0.0455087482,21.1451598 L0.0455087482,13.8862489 L4.44737262,13.8862489 L4.44737262,9.52652467 C4.44737262,3.60378662 6.93122399,0.0827770546 13.9911209,0.0827770546 L19.8689986,0.0827770546 L19.8689986,7.34367783 L16.1950734,7.34367783 C13.4464255,7.34367783 13.265196,8.35849268 13.265196,10.2518188 L13.2541209,13.885254 L19.9092719,13.885254 L19.1309917,21.1441649 L13.2541209,21.1441649 L13.2541209,42.2115222 L13.2541209,42.2115222 Z M43.3553386,42.2662426 L36.0145359,42.2662426 L35.6973842,40.4316166 C32.3456448,42.2662426 29.3543508,42.5637227 27.3809626,42.5637227 C21.9974388,42.5637227 19.1319985,39.0098809 19.1319985,34.0949932 C19.1319985,28.2966198 22.4756833,26.2271934 28.4572646,26.2271934 L34.5455699,26.2271934 L34.5455699,24.9735986 C34.5455699,22.0137219 34.2022406,21.1451598 29.5959901,21.1451598 L22.0648964,21.1451598 L22.8008897,13.8862489 L31.0327376,13.8862489 C41.1393042,13.8862489 43.3553386,17.0411292 43.3553386,25.0322987 L43.3553386,42.2662426 L43.3553386,42.2662426 Z M68.3176925,21.6774401 C63.7497015,20.9033951 62.4378011,20.7332644 60.2398897,20.7332644 C56.2921065,20.7332644 55.0990121,21.5938672 55.0990121,24.9069392 L55.0990121,31.1739183 C55.0990121,34.4869904 56.2921065,35.3515728 60.2398897,35.3515728 C62.4378011,35.3515728 63.7497015,35.1784573 68.3176925,34.4014275 L68.3176925,41.4822484 C64.3165472,42.368719 61.7098625,42.6015295 59.5069169,42.6015295 C50.0507629,42.6015295 46.2922638,37.6876368 46.2922638,30.5889074 L46.2922638,25.5038891 C46.2922638,18.3991902 50.0507629,13.4763433 59.5069169,13.4763433 C61.7098625,13.4763433 64.3165472,13.7101486 68.3176925,14.6005989 L68.3176925,21.6774401 L68.3176925,21.6774401 Z M95.88069,30.5889074 L79.7291118,30.5889074 L79.7291118,31.1739183 C79.7291118,34.4869904 80.923213,35.3515728 84.8699894,35.3515728 C88.4180608,35.3515728 90.5837537,35.1784573 95.14369,34.4014275 L95.14369,41.4822484 C90.7458534,42.368719 88.4543067,42.6015295 84.1400371,42.6015295 C74.6828762,42.6015295 70.9223635,37.6876368 70.9223635,30.5889074 L70.9223635,24.7746153 C70.9223635,18.5633514 73.7122914,13.4763433 83.403037,13.4763433 C93.0937826,13.4763433 95.88069,18.5046514 95.88069,24.7746153 L95.88069,30.5889074 L95.88069,30.5889074 Z M124.511935,30.7232212 C124.511935,37.5841655 122.527472,42.5885956 110.505913,42.5885956 C106.164459,42.5885956 103.618184,42.2115222 98.8266767,41.4832433 L98.8266767,2.26363407 L107.631411,0.812050864 L107.631411,14.5309548 C109.534321,13.8325234 111.997029,13.4773382 114.238234,13.4773382 C123.043976,13.4773382 124.510928,17.3784059 124.510928,23.6473749 L124.510928,30.7232212 L124.511935,30.7232212 Z M152.73642,30.8724586 C152.73642,36.791217 150.263644,42.5318853 139.917452,42.5318853 C129.566225,42.5318853 127.047135,36.791217 127.047135,30.8724586 L127.047135,25.1576581 C127.047135,19.235915 129.566225,13.4942518 139.917452,13.4942518 C150.263644,13.4942518 152.73642,19.235915 152.73642,25.1576581 L152.73642,30.8724586 Z M180.941776,30.8724586 C180.941776,36.791217 178.465979,42.5318853 168.1218,42.5318853 C157.770574,42.5318853 155.251483,36.791217 155.251483,30.8724586 L155.251483,25.1576581 C155.251483,19.235915 157.770574,13.4942518 168.1218,13.4942518 C178.465979,13.4942518 180.941776,19.235915 180.941776,25.1576581 L180.941776,30.8724586 Z M209.887152,42.2115222 L200.343404,42.2115222 L192.271642,28.8965544 L192.271642,42.2115222 L183.463887,42.2115222 L183.463887,2.26263915 L192.271642,0.811055948 L192.271642,26.5286531 L200.343404,13.8862489 L209.887152,13.8862489 L201.07537,27.6827563 L209.887152,42.2115222 L209.887152,42.2115222 Z M168.091596,20.7461983 C165.100301,20.7461983 164.062259,22.3619427 164.062259,24.3736639 L164.062259,31.7151529 C164.062259,33.7318487 165.100301,35.3525677 168.091596,35.3525677 C171.078862,35.3525677 172.136034,33.7318487 172.136034,31.7151529 L172.136034,24.3736639 C172.136034,22.3619427 171.078862,20.7461983 168.091596,20.7461983 Z M214.914258,37.2429091 C216.397319,37.2429091 217.578332,38.4378039 217.578332,39.9301786 C217.578332,41.4454365 216.396313,42.6273973 214.903183,42.6273973 C213.4171,42.6273973 212.211924,41.4454365 212.211924,39.9301786 C212.211924,38.4378039 213.4171,37.2429091 214.903183,37.2429091 L214.914258,37.2429091 L214.914258,37.2429091 Z M214.903183,37.6607741 C213.708075,37.6607741 212.730442,38.6765838 212.730442,39.9301786 C212.730442,41.2066565 213.709081,42.2095324 214.914258,42.2095324 C216.120441,42.2214714 217.083978,41.2066565 217.083978,39.9421176 C217.083978,38.6775787 216.120441,37.6607741 214.914258,37.6607741 L214.903183,37.6607741 L214.903183,37.6607741 Z M214.396747,41.4941874 L213.913468,41.4941874 L213.913468,38.495509 C214.167189,38.4606869 214.408829,38.4258649 214.771288,38.4258649 C215.230403,38.4258649 215.530438,38.5213768 215.714688,38.6517109 C215.892897,38.7840348 215.988546,38.9860029 215.988546,39.2715439 C215.988546,39.6675207 215.724756,39.9053057 215.39955,40.0018126 L215.39955,40.0246957 C215.664347,40.0734466 215.844569,40.3102368 215.905986,40.7509848 C215.976464,41.2176006 216.049963,41.3956907 216.097284,41.4931925 L215.590848,41.4931925 C215.519363,41.3956907 215.445864,41.1220886 215.385455,40.7271068 C215.314976,40.3460537 215.119651,40.2027858 214.733028,40.2027858 L214.397754,40.2027858 L214.397754,41.4941874 L214.396747,41.4941874 Z M214.396747,39.8346667 L214.747124,39.8346667 C215.143815,39.8346667 215.481103,39.6904038 215.481103,39.3192999 C215.481103,39.0566419 215.289806,38.7949789 214.747124,38.7949789 C214.589051,38.7949789 214.479307,38.8069179 214.396747,38.817862 L214.396747,39.8346667 Z" id="Shape"></path>
            </g>
        </g>
    </g>
</svg>