<?xml version="1.0" encoding="UTF-8"?>
<svg width="352px" height="92px" viewBox="0 0 352 92" version="1.1" xmlns="http://www.w3.org/2000/svg" xmlns:xlink="http://www.w3.org/1999/xlink">
    <title>Logos</title>
    <g id="Logos" stroke="none" stroke-width="1" fill="none" fill-rule="evenodd">
        <g id="logo-digitalocean" transform="translate(56.000000, 34.000000)" fill="#707780" fill-rule="nonzero">
            <path d="M21.0450393,4.57902586 C18.1066697,2.56627376 14.2395765,1.47292695 9.90656855,1.47292695 L0.473346152,1.47292695 L0.473346152,31.6455718 L9.90967465,31.6455718 C14.2416473,31.6455718 17.9544708,30.5625786 21.0481454,28.3965923 C22.7378684,27.1673219 24.0720869,25.5126766 24.9152385,23.6007756 C25.8470682,21.5880235 26.3067708,19.1124627 26.3067708,16.4815969 C26.3067708,13.8507311 25.8439621,11.3751703 24.9152385,9.51772313 C23.9834088,7.20989164 22.7471815,5.66305438 21.0450393,4.57902586 L21.0450393,4.57902586 Z M6.0425815,6.59177796 L8.98095108,6.59177796 C12.2299305,6.59177796 15.0129952,7.21299774 17.1779461,8.60453005 C19.498202,9.99606236 20.5946549,12.6424586 20.5946549,16.4971274 C20.5946549,20.3517961 19.3522153,23.1503913 17.1779461,24.6972285 C15.1683001,25.9396681 12.5374343,26.7099806 9.13314992,26.7099806 L6.0425815,26.7099806 L6.0425815,6.59177796 M32.9569286,1.0225426 C32.0879995,0.999323861 31.2481765,1.33660216 30.6366727,1.95437228 C29.9214745,2.50706052 29.5176341,3.37144098 29.5526442,4.27462817 C29.5526442,6.06898998 31.0072618,7.52360763 32.8016236,7.52360763 C34.5959855,7.52360763 36.0506031,6.06898998 36.0506031,4.27462817 C36.0734488,3.40576606 35.7362278,2.56608574 35.1187734,1.95437228 C34.6559647,1.3331525 33.8763339,1.0225426 32.9445042,1.0225426 M30.1490152,10.3066723 L35.5629456,10.3066723 L35.5629456,31.5057973 L30.1707579,31.5057973 L30.1707579,10.3066723 M54.920154,12.1703316 C53.3671045,10.7787993 51.5034452,9.85007572 49.5062236,9.85007572 C46.748095,9.78932146 44.0978424,10.9214243 42.234846,12.9561746 C40.3027494,15.0027487 39.2481126,17.7240684 39.2964765,20.5381621 C39.2964765,23.4796377 40.2283061,26.1073974 42.0919655,28.1201495 C43.9556248,30.1329016 46.4218674,31.0616252 49.363343,31.0616252 C51.2562086,31.0913142 53.1055246,30.4927169 54.6219685,29.359483 L54.6219685,29.8222917 C54.6219685,31.5244339 54.1591598,32.9283906 53.2304362,33.8602203 C52.3017126,34.79205 51.056167,35.2517526 49.363343,35.2517526 C46.8784639,35.2517526 45.340945,34.319923 43.4866039,31.6921633 L39.7592852,35.2517526 L39.9145902,35.4070576 C40.6880088,36.4910861 41.9242361,37.5813268 43.4710734,38.656037 C45.0179107,39.7307473 47.0275567,40.2090865 49.3478126,40.2090865 C52.596792,40.2090865 55.0723528,39.2772568 56.9266939,37.2676108 C58.781035,35.2579648 59.8650635,32.7792979 59.8650635,29.5303184 L59.8650635,10.3066723 L54.6126502,10.3066723 L54.6126502,12.1703316 L54.9232601,12.1703316 M53.5317278,24.7034407 C52.5998981,25.7874692 51.3574585,26.2564902 49.8044091,26.2564902 C48.2513596,26.2564902 47.0089201,25.7936814 46.0770904,24.7034407 C45.1452607,23.6132 44.6855581,22.2185616 44.6855581,20.5257377 C44.6855581,18.8329138 45.1794278,17.4227449 46.1112575,16.3387163 C47.0430872,15.2546878 48.2855267,14.7856669 49.8385762,14.7856669 C51.3916256,14.7856669 52.6340652,15.2484756 53.5658949,16.3387163 C54.4977246,17.4289571 54.9574272,18.8235955 54.9574272,20.5164194 C54.9574272,22.2092433 54.4946185,23.6225183 53.5658949,24.6941224 M64.8565644,10.3035662 L70.2704948,10.3035662 L70.2704948,31.5026912 L64.8223973,31.5026912 L64.8223973,10.3066723 M67.4532631,1.0225426 C66.585159,1.00101291 65.7462001,1.33639682 65.132169,1.95042791 C64.5181379,2.56445901 64.182754,3.4034179 64.2042837,4.27152207 C64.2042837,6.06588388 65.6589013,7.52050153 67.4532631,7.52050153 C69.2476249,7.52050153 70.7022426,6.06588388 70.7022426,4.27152207 C70.7238075,3.40286491 70.3880037,2.56340714 69.7732876,1.94927815 C69.1585714,1.33514916 68.3187932,1.00014759 67.450157,1.0225426 M81.831395,4.57902586 L76.5789817,4.57902586 L76.5789817,10.3066723 L73.4728828,10.3066723 L73.4728828,15.102489 L76.5789817,15.102489 L76.5789817,23.9238099 C76.5789817,26.7192989 77.2002015,28.7196266 78.2811239,29.8036551 C79.3620464,30.8876837 81.3872228,31.5057973 84.0056642,31.5057973 C84.8854774,31.5313047 85.7658285,31.4793359 86.63653,31.3504924 L86.9471399,31.3504924 L86.9471399,26.5515696 L85.0834806,26.7068745 C83.841041,26.7068745 82.9092113,26.5515696 82.5986014,26.0856547 C82.1357927,25.622846 81.9773816,24.6941224 81.9773816,23.2901657 L81.9773816,15.2577939 L86.9285033,15.2577939 L86.9285033,10.4588711 L81.9929121,10.4588711 L81.831395,4.57902586 M111.839417,1.47292695 L117.253347,1.47292695 L117.253347,31.6455718 L111.845629,31.6455718 L111.845629,1.49156354 M171.246664,24.0822209 C170.455702,24.9970684 169.574264,25.8295956 168.615799,26.5671001 C167.773185,27.0779143 166.805654,27.3455981 165.82031,27.3405187 C164.353614,27.3277439 162.958317,26.7054863 161.968747,25.622846 C160.884718,24.3804064 160.415697,22.9919802 160.415697,21.1345331 C160.415697,19.2770859 160.878506,17.8855536 161.968747,16.6462201 C162.921112,15.5059093 164.351689,14.8762255 165.83584,14.9440779 C167.537982,14.9440779 169.392323,16.0281065 170.939161,17.8855536 L174.495644,14.4688448 C172.175388,11.5273691 169.237018,10.1358368 165.677429,10.1358368 C162.739059,10.1358368 160.263499,11.2198653 158.098548,13.3848163 C156.072557,15.5093259 154.957791,18.3419443 154.992449,21.2774136 C154.992449,24.3835125 156.076477,27.1572589 158.098548,29.170011 C160.044597,31.2861157 162.802965,32.4685965 165.677429,32.4189904 C169.544522,32.4189904 172.638197,30.7168482 174.803148,27.6231737 L171.246664,24.0635843 M193.057691,13.3879224 C192.243624,12.3156303 191.176428,11.4618735 189.951592,10.9030432 C188.547685,10.2528277 187.013108,9.93400965 185.466385,9.97121357 C182.528016,9.97121357 180.052455,11.0552421 178.195008,13.220193 C176.437107,15.4705511 175.508036,18.2577636 175.564142,21.1127904 C175.564142,24.3617698 176.495972,26.9926356 178.502511,29.0053877 C180.509051,31.0181398 182.987718,32.1114866 186.236698,32.1114866 C189.793181,32.1114866 192.734657,30.7199543 195.054913,27.7784786 L195.210218,27.6231737 L191.653734,24.2064649 C191.343124,24.6692736 190.880316,24.9798835 190.411295,25.4489045 C189.97226,25.9115705 189.44392,26.2803519 188.858245,26.532933 C188.053462,26.9737406 187.144338,27.1884098 186.227379,27.1541528 C184.880154,27.1736453 183.566146,26.7356425 182.500061,25.9117132 C181.568231,25.1382946 181.108528,24.0480538 180.947011,22.6627337 L195.179157,22.6627337 L195.179157,20.6499816 C195.213833,19.2777743 195.003465,17.9103828 194.557937,16.612053 C194.331706,15.4123963 193.796394,14.2925219 193.004887,13.3630736 M181.456412,18.3514684 C181.693117,17.4149984 182.173178,16.5577458 182.847944,15.8665893 C183.586949,15.1298646 184.600943,14.7366605 185.643433,14.7825608 C186.885872,14.7825608 187.963689,15.0931707 188.581802,15.8665893 C189.203022,16.4878091 189.513632,17.4196388 189.665831,18.3514684 L181.456412,18.3514684 M213.63249,12.0057084 C212.079441,10.614176 209.765397,9.99295627 206.982332,9.99295627 C205.280335,10.0411832 203.602706,10.4100087 202.037423,11.0800909 C200.645891,11.8535095 199.241934,12.9437502 198.48094,14.4967997 L201.897648,17.7457792 C203.289181,15.4255233 204.836018,14.6396802 207.000969,14.6396802 C208.013241,14.6128497 209.002738,14.942682 209.796458,15.5715099 C210.511656,16.1241982 210.915497,16.9885786 210.880487,17.8917658 L210.880487,18.9757943 C209.634866,18.5555372 208.327968,18.3455938 207.013393,18.3545745 C204.383563,18.3545745 202.217577,18.9757943 200.515434,20.2182339 C198.813292,21.4606735 198.030555,23.3243328 198.030555,25.4799654 C198.030555,27.4927175 198.651775,29.0395548 200.040201,30.2757822 C201.428628,31.5120095 203.1463,31.9779244 205.143522,31.9779244 C207.140743,31.9779244 209.010615,31.2045057 210.868062,29.8036551 L210.868062,31.5057973 L216.126688,31.5057973 L216.126688,17.8886597 C216.126688,15.4037806 215.353269,13.4003468 213.641808,12.0088145 M204.20548,23.4578951 C204.8267,22.9950863 205.597012,22.8366753 206.690359,22.8366753 C208.063307,22.8829678 209.420541,23.1439341 210.712757,23.6100939 L210.712757,25.622846 C209.4325,26.7493878 207.777285,27.3565214 206.072245,27.3249882 C205.140416,27.3249882 204.370103,27.1696833 203.897976,26.7037684 C203.425849,26.2378536 203.124558,25.7719387 203.124558,25.150719 C203.235068,24.4578818 203.627483,23.8417117 204.208586,23.4485768 M236.679744,12.3163183 C235.126695,10.614176 233.123261,9.83143912 230.492395,9.83143912 C228.326409,9.83143912 226.625302,10.4526589 225.389075,11.6950985 L225.389075,10.4526589 L220.127343,10.4526589 L220.127343,31.651784 L225.541273,31.651784 L225.541273,19.8983057 C225.541273,18.3452562 225.851883,16.95683 226.625302,16.0312126 C227.392513,15.1156157 228.537432,14.6026919 229.731401,14.6396802 C230.807501,14.5872464 231.844711,15.0482286 232.52689,15.8821198 C233.253428,16.8711827 233.634357,18.0718187 233.610918,19.2988286 L233.610918,31.6766328 L239,31.6766328 L239,19.280192 C238.844695,16.3397517 238.071276,14.0184605 236.679744,12.3163183 M105.195471,12.0057084 C103.642422,10.614176 101.328378,9.99295627 98.5453132,9.99295627 C96.8414167,10.0394213 95.1616162,10.4072069 93.5941916,11.0769848 C92.2026593,11.8504034 90.7987026,12.9406441 90.0377083,14.4936936 L93.4544171,17.7426731 C94.8459494,15.4224172 96.3927867,14.6365741 98.5577376,14.6365741 C99.5700101,14.6097436 100.559507,14.9395759 101.353227,15.5684038 C102.068425,16.1210921 102.472265,16.9854725 102.437255,17.8886597 L102.437255,18.9726882 C101.191634,18.5524311 99.8847367,18.3424877 98.570162,18.3514684 C95.9403316,18.3514684 93.7743453,18.9726882 92.0722031,20.2151278 C90.3700609,21.4575674 89.587324,23.3212267 89.587324,25.4768593 C89.587324,27.4896114 90.2085438,29.0364487 91.59697,30.2726761 C92.9853962,31.5089034 94.7030689,31.9748183 96.7002905,31.9748183 C98.6975121,31.9748183 100.567384,31.2013996 102.424831,29.800549 L102.424831,31.5026912 L107.683456,31.5026912 L107.683456,17.8886597 C107.683456,15.4037806 106.751627,13.4003468 105.198577,12.0088145 M95.6069437,23.4578951 C96.2281635,22.9950863 96.998476,22.8366753 98.0918228,22.8366753 C99.4647703,22.8829678 100.822005,23.1439341 102.114221,23.6100939 L102.114221,25.622846 C100.833964,26.7493878 99.1787489,27.3565214 97.4737091,27.3249882 C96.5418794,27.3249882 95.7715669,27.1696833 95.2994399,26.7037684 C94.8273128,26.2378536 94.5260212,25.7719387 94.5260212,25.150719 C94.7572041,24.510234 95.1274181,23.9289238 95.6100498,23.4485768 M136.610555,32.114594 C130.351105,32.1171056 124.706604,28.3484376 122.309475,22.5661809 C119.912346,16.7839242 121.234752,10.1270108 125.659963,5.70002235 C130.085174,1.27303394 136.741556,-0.0520448408 142.524775,2.34276242 C148.307993,4.73756967 152.078928,10.3805574 152.078928,16.6400079 C152.048283,25.1712374 145.141772,32.0805226 136.610555,32.114594 M136.610555,6.43024874 C132.541815,6.42397878 128.870099,8.86976249 127.308124,12.6267458 C125.74615,16.3837292 126.601655,20.7117158 129.47558,23.5918628 C132.349504,26.4720097 136.67563,27.336874 140.435983,25.7830288 C144.196336,24.2291836 146.650055,20.5627658 146.652597,16.4940213 C146.65836,13.8253625 145.601013,11.2642937 143.714273,9.37697112 C141.827534,7.48964852 139.266792,6.431511 136.598131,6.43647301" id="Shape"></path>
        </g>
    </g>
</svg>